<svg id="图层_1" data-name="图层 1" xmlns="http://www.w3.org/2000/svg" xmlns:xlink="http://www.w3.org/1999/xlink" viewBox="0 0 257.6 257.51"><defs><linearGradient id="未命名的渐变_3" x1="201.17" y1="218.38" x2="436.45" y2="453.66" gradientTransform="translate(0 74)" gradientUnits="userSpaceOnUse"><stop offset="0" stop-color="#f9a82e"/><stop offset="0.13" stop-color="#f6882c"/><stop offset="0.31" stop-color="#f36129"/><stop offset="0.49" stop-color="#f04327"/><stop offset="0.67" stop-color="#ee2d25"/><stop offset="0.84" stop-color="#ed2024"/><stop offset="1" stop-color="#ed1c24"/></linearGradient></defs><title>logo5</title><path d="M409.56,538.77H228a38.06,38.06,0,0,1-38-38V319.29a38.05,38.05,0,0,1,38-38H409.56a38.05,38.05,0,0,1,38,38V500.81A38,38,0,0,1,409.56,538.77Z" transform="translate(-190 -281.25)" fill="url(#未命名的渐变_3)"/><path d="M294.66,453.73l-18.59-18.59a7.12,7.12,0,0,1,0-10.16h0a7.11,7.11,0,0,1,10.15,0l18.59,18.6a7.11,7.11,0,0,1,0,10.15h0A7.26,7.26,0,0,1,294.66,453.73Z" transform="translate(-190 -281.25)" fill="#eee93a"/><path d="M352.07,396.24l-18.6-18.59a7.12,7.12,0,0,1,0-10.16h0a7.12,7.12,0,0,1,10.16,0l18.59,18.59a7.12,7.12,0,0,1,0,10.16h0A7.11,7.11,0,0,1,352.07,396.24Z" transform="translate(-190 -281.25)" fill="#eee93a"/><circle cx="72.81" cy="119.03" r="7.23" fill="#eee93a"/><circle cx="185.3" cy="139.95" r="7.23" fill="#eee93a"/><path d="M396,349l-15.23-15.24c-24.36-24.35-62.32-26-84.61-3.61-11.1,11.1-16.61,26.16-15.66,42.52a65.2,65.2,0,0,0,19.28,42.08h0L315,430h0a31.7,31.7,0,0,1,9.64,20.48,21.63,21.63,0,0,1-6,17c-9.38,9.38-26.16,7.75-37.52-3.61l-15.23-15.24c-8.53-8.52-11.62-20.22-8.53-29.43h0a7.29,7.29,0,0,0-1.46-8.09,7.09,7.09,0,0,0-11.79,2.67h0c0,.08-.09.25-.09.34v.09c-4.9,14.37-.77,32,11.8,44.67L271,474.13c16.95,16.95,42.86,18.59,57.84,3.61,7.23-7.23,10.84-17.12,10.15-28.05a46.38,46.38,0,0,0-13.77-29.78h0l-15.32-15.32h0a51.08,51.08,0,0,1-15.15-32.71c-.68-12.22,3.36-23.41,11.45-31.5C323,323.6,351.72,325.23,370.48,344l15.24,15.23c18.76,18.76,20.31,47.51,3.61,64.29l-5.94,5.94h0a7.29,7.29,0,0,0,0,10.16,7.2,7.2,0,0,0,10.16,0h0l5.94-5.94C421.87,411.3,420.32,373.34,396,349Z" transform="translate(-190 -281.25)" fill="#fff"/><path d="M394.24,407.51c0-.08,0-.08.08-.17,5.08-14.37,1-32.19-11.7-44.93l-15.23-15.23c-17-17-42.87-18.59-57.84-3.62-7.23,7.23-10.85,17.22-10.16,28.06a46.42,46.42,0,0,0,13.77,29.78h0l15.15,15.24h0a51,51,0,0,1,15.15,32.7c.69,12.22-3.36,23.41-11.45,31.5-16.7,16.7-45.53,15.06-64.29-3.61L252.49,462c-18.77-18.76-20.32-47.51-3.62-64.29l5.68-5.68h0l.26-.26h0a7.13,7.13,0,0,0-.26-9.9,7.21,7.21,0,0,0-9.9-.25h0l-5.94,5.94c-22.29,22.29-20.65,60.24,3.62,84.6l15.23,15.23c24.36,24.36,62.32,26,84.61,3.62,11.1-11.1,16.61-26.17,15.66-42.52a65.28,65.28,0,0,0-19.28-42.09h0l-15.23-15.23h0a31.74,31.74,0,0,1-9.64-20.48,21.68,21.68,0,0,1,6-17.05c9.39-9.38,26.17-7.74,37.53,3.62l15.23,15.23c8.7,8.7,11.62,20.49,8.44,29.78h0a7.29,7.29,0,0,0,1.46,8.09,7.12,7.12,0,0,0,10.16,0,7.21,7.21,0,0,0,1.63-2.66h0A.31.31,0,0,0,394.24,407.51Z" transform="translate(-190 -281.25)" fill="#fff"/></svg>