<?xml version="1.0" ?>
<svg id="Layer_2" style="enable-background:new 0 0 64 64;" version="1.1" viewBox="0 0 64 64" xml:space="preserve" xmlns="http://www.w3.org/2000/svg" ><g><g><path d="M61.91,22.04c0.26,2.99-0.08,5.87-0.91,8.53c-0.42,1.34-0.41,2.76,0.02,4.09    c0.79,2.5,1.14,5.2,0.91,8.01c-0.8,10.18-9.08,18.46-19.26,19.26c-2.82,0.23-5.53-0.12-8.04-0.92c-1.31-0.42-2.71-0.43-4.03-0.02    c-2.66,0.84-5.54,1.18-8.53,0.93C10.94,60.97,2.17,51.5,2,40.33c-0.05-3.44,0.69-6.7,2.05-9.61C4.73,29.25,5,27.64,5,26.03    c0-0.01,0-0.02,0-0.03C5,13.85,14.85,4,27,4c0.37,0,0.75,0.01,1.12,0.03c1.42,0.07,2.83-0.13,4.16-0.63    c2.82-1.06,5.92-1.56,9.15-1.35C52.17,2.73,60.99,11.32,61.91,22.04z" style="fill:#FFEAA7;"/><circle cx="52" cy="28" r="2" style="fill:#FFC729;"/><path d="M54,42.97V47c0,3.87-3.13,7-7,7h-5.9c-3.92,0-7.1-3.18-7.1-7.1c0-1.22,0.31-2.39,0.88-3.42    c0.56-1.03,1.38-1.92,2.41-2.57l6-3.82C44.41,36.38,45.7,36,47.03,36C50.88,36,54,39.12,54,42.97z" style="fill:#5CD6B3;"/><circle cx="48" cy="48" r="2" style="fill:#EF7385;"/><circle cx="47" cy="43" r="3" style="fill:#FFC729;"/><circle cx="40" cy="48" r="2" style="fill:#EF7385;"/><path d="M38,32.85V33c0,2.76-2.24,5-5,5h-2.67C27.94,38,26,36.06,26,33.67c0-1.63,0.93-3.13,2.39-3.87    l2.59-1.29c0.67-0.33,1.41-0.51,2.17-0.51C35.83,28,38,30.17,38,32.85z" style="fill:#FFC729;"/><path d="M37.5,15.88c0.33,0.74,0.5,1.54,0.5,2.35c0,1.59-0.65,3.03-1.69,4.08    C35.26,23.35,33.82,24,32.23,24h-3.34c-1.24,0-2.47,0.29-3.58,0.84L24.2,25.4c-0.79,0.4-1.66,0.6-2.54,0.6    c-1.56,0-2.98-0.64-4-1.66S16,21.9,16,20.34v-0.01c0-3.23,1.93-6.16,4.9-7.43l1.09-0.47c0.67-0.28,1.3-0.66,1.87-1.12l2.5-2    C27.42,8.46,28.74,8,30.1,8c2.37,0,4.52,1.4,5.48,3.56L37.5,15.88z" style="fill:#5CD6B3;"/><ellipse cx="28" cy="17" rx="4" ry="3" style="fill:#FFC729;"/><path d="M24,46c3.31,0,6,2.69,6,6s-2.69,6-6,6s-6-2.69-6-6S20.69,46,24,46z" style="fill:#5CD6B3;"/><circle cx="24" cy="52" r="2" style="fill:#FFC729;"/><path d="M22,34v4.28c0,0.95-0.77,1.72-1.72,1.72h-0.56C18.77,40,18,39.23,18,38.28    c0-0.19,0.03-0.37,0.09-0.54L20,32C21.1,32,22,32.9,22,34z" style="fill:#FFC729;"/><circle cx="14" cy="22" r="2" style="fill:#FFC729;"/><path d="M54,12h-0.76c-0.41,0-0.83-0.03-1.24-0.1c-0.73-0.13-1.44-0.36-2.11-0.69    c-0.6-0.3-1.24-0.55-1.89-0.74C46.95,10.16,45.86,10,44.76,10H44h-2c-1.1,0-2,0.9-2,2c0,1.1,0.9,2,2,2h2h0.76    c1.12,0,2.23,0.25,3.24,0.74c0.04,0.01,0.07,0.03,0.11,0.05c1.21,0.61,2.54,0.99,3.89,1.14c0.41,0.05,0.83,0.07,1.24,0.07H54    c1.1,0,2-0.9,2-2C56,12.9,55.1,12,54,12z" style="fill:#EF7385;"/><path d="M14,28c-1.1,0-2,0.9-2,2v0.76c0,0.41-0.03,0.83-0.1,1.24c-0.13,0.73-0.36,1.44-0.69,2.11    c-0.3,0.6-0.55,1.24-0.74,1.89C10.16,37.05,10,38.14,10,39.24V40v2c0,1.1,0.9,2,2,2s2-0.9,2-2v-2v-0.76    c0-1.12,0.25-2.23,0.74-3.24c0.01-0.04,0.03-0.07,0.05-0.11c0.61-1.21,0.99-2.54,1.14-3.89c0.05-0.41,0.07-0.83,0.07-1.24V30    C16,28.9,15.1,28,14,28z" style="fill:#EF7385;"/><circle cx="10" cy="50" r="2" style="fill:#FFC729;"/></g><g><path d="M17,30c0-1.654-1.346-3-3-3s-3,1.346-3,3v0.765c0,1-0.236,2-0.684,2.894C9.455,35.382,9,37.311,9,39.235V42    c0,1.654,1.346,3,3,3s3-1.346,3-3v-2.765c0-1,0.236-2,0.684-2.894C16.545,34.618,17,32.689,17,30.765V30z M13,42    c0,0.552-0.449,1-1,1s-1-0.448-1-1v-1h2V42z M13.014,39h-2c0.015-0.672,0.094-1.342,0.238-2h2.062    C13.135,37.653,13.033,38.324,13.014,39z M14.087,35h-2.173c0.066-0.148,0.119-0.302,0.192-0.447    c0.248-0.495,0.435-1.018,0.581-1.553h2.062C14.598,33.688,14.371,34.356,14.087,35z M15,30.765c0,0.079-0.012,0.157-0.014,0.235    h-2C12.988,30.921,13,30.843,13,30.765V30c0-0.552,0.449-1,1-1s1,0.448,1,1V30.765z"/><path d="M54,11h-0.765c-0.999,0-2-0.236-2.894-0.684C48.618,9.455,46.689,9,44.765,9H42c-1.654,0-3,1.346-3,3s1.346,3,3,3h2.765    c0.999,0,2,0.236,2.894,0.684C49.382,16.545,51.311,17,53.235,17H54c1.654,0,3-1.346,3-3S55.654,11,54,11z M43,13h-1    c-0.551,0-1-0.448-1-1s0.449-1,1-1h1V13z M47,13.314c-0.653-0.179-1.324-0.281-2-0.3v-2c0.672,0.015,1.342,0.094,2,0.238V13.314z     M51,14.748c-0.688-0.151-1.356-0.377-2-0.662v-2.173c0.148,0.066,0.302,0.119,0.447,0.192c0.495,0.247,1.018,0.434,1.553,0.58    V14.748z M54,15h-0.765c-0.079,0-0.157-0.012-0.235-0.014v-2C53.079,12.988,53.157,13,53.235,13H54c0.551,0,1,0.448,1,1    S54.551,15,54,15z"/><path d="M28,21c2.757,0,5-1.794,5-4s-2.243-4-5-4s-5,1.794-5,4S25.243,21,28,21z M28,15c1.626,0,3,0.916,3,2s-1.374,2-3,2    s-3-0.916-3-2S26.374,15,28,15z"/><path d="M19.279,31l-2.139,6.418C17.047,37.695,17,37.985,17,38.279c0,1.5,1.221,2.721,2.721,2.721h0.559    c1.5,0,2.721-1.221,2.721-2.721V34c0-1.654-1.346-3-3-3H19.279z M21,34v4.279C21,38.677,20.677,39,20.279,39h-0.559    C19.323,39,19,38.677,19,38.279c0-0.076,0.013-0.155,0.037-0.228l1.605-4.817C20.861,33.418,21,33.693,21,34z"/><path d="M10,47c-1.654,0-3,1.346-3,3s1.346,3,3,3s3-1.346,3-3S11.654,47,10,47z M10,51c-0.551,0-1-0.448-1-1s0.449-1,1-1    s1,0.448,1,1S10.551,51,10,51z"/><path d="M14,25c0.846,0,1.608-0.355,2.154-0.921c1.2,1.761,3.221,2.921,5.509,2.921c1.028,0,2.058-0.243,2.98-0.703l1.115-0.558    C26.725,25.256,27.808,25,28.889,25h3.337C35.961,25,39,21.961,39,18.226c0-0.954-0.196-1.88-0.584-2.752l-1.92-4.319    C35.375,8.631,32.865,7,30.104,7c-1.582,0-3.133,0.544-4.371,1.532l-2.501,2.001c-0.497,0.398-1.047,0.729-1.635,0.98    l-1.088,0.466c-2.996,1.284-5.03,4.052-5.426,7.231C14.746,19.079,14.383,19,14,19c-1.654,0-3,1.346-3,3S12.346,25,14,25z     M21.297,13.817l1.088-0.466c0.754-0.323,1.46-0.746,2.097-1.257l2.5-2C27.865,9.389,28.974,9,30.104,9    c1.972,0,3.764,1.164,4.565,2.967l1.92,4.319C36.862,16.9,37,17.553,37,18.226C37,20.858,34.858,23,32.226,23h-3.337    c-1.39,0-2.782,0.329-4.025,0.95l-1.115,0.558C23.104,24.83,22.382,25,21.663,25C19.092,25,17,22.907,17,20.335    C17,17.495,18.687,14.937,21.297,13.817z M14,21c0.551,0,1,0.448,1,1s-0.449,1-1,1s-1-0.448-1-1S13.449,21,14,21z"/><path d="M24,49c-1.654,0-3,1.346-3,3s1.346,3,3,3s3-1.346,3-3S25.654,49,24,49z M24,53c-0.551,0-1-0.448-1-1s0.449-1,1-1    s1,0.448,1,1S24.551,53,24,53z"/><path d="M24,45c-3.86,0-7,3.141-7,7s3.14,7,7,7s7-3.141,7-7S27.86,45,24,45z M24,57c-2.757,0-5-2.243-5-5s2.243-5,5-5s5,2.243,5,5    S26.757,57,24,57z"/><path d="M39,33v-0.146C39,29.626,36.374,27,33.146,27c-0.904,0-1.809,0.214-2.618,0.618l-2.583,1.292    C26.128,29.817,25,31.643,25,33.674C25,36.61,27.389,39,30.326,39H33C36.309,39,39,36.309,39,33z M27,33.674    c0-1.269,0.705-2.408,1.839-2.975l2.583-1.292C31.955,29.141,32.551,29,33.146,29C35.271,29,37,30.729,37,32.854V33    c0,2.206-1.794,4-4,4h-2.674C28.492,37,27,35.508,27,33.674z"/><rect height="2" width="2" x="45" y="30"/><rect height="2" width="2" x="55" y="32"/><rect height="2" width="2" x="40" y="26"/><rect height="2" width="2" x="27" y="41"/><rect height="2" width="2" x="44" y="24"/><rect height="2" width="2" x="46" y="18"/><rect height="2" width="2" x="54" y="20"/><path d="M49,28c0,1.654,1.346,3,3,3s3-1.346,3-3s-1.346-3-3-3S49,26.346,49,28z M53,28c0,0.552-0.449,1-1,1s-1-0.448-1-1    s0.449-1,1-1S53,27.448,53,28z"/><path d="M47,39c-2.206,0-4,1.794-4,4c0,1.614,0.966,3,2.346,3.632C45.132,47.044,45,47.505,45,48c0,1.654,1.346,3,3,3s3-1.346,3-3    c0-0.92-0.425-1.735-1.08-2.286C50.585,45,51,44.05,51,43C51,40.794,49.206,39,47,39z M48,49c-0.551,0-1-0.448-1-1s0.449-1,1-1    s1,0.448,1,1S48.551,49,48,49z M47,45c-1.103,0-2-0.897-2-2s0.897-2,2-2s2,0.897,2,2S48.103,45,47,45z"/><path d="M40,45c-1.654,0-3,1.346-3,3s1.346,3,3,3s3-1.346,3-3S41.654,45,40,45z M40,49c-0.551,0-1-0.448-1-1s0.449-1,1-1    s1,0.448,1,1S40.551,49,40,49z"/><path d="M47.03,35c-1.519,0-2.999,0.431-4.279,1.246l-5.999,3.817C34.403,41.559,33,44.114,33,46.898    C33,51.365,36.634,55,41.102,55H47c4.411,0,8-3.589,8-8v-4.029C55,38.575,51.425,35,47.03,35z M53,47c0,3.309-2.691,6-6,6h-5.898    C37.737,53,35,50.263,35,46.898c0-2.097,1.057-4.021,2.826-5.147l5.999-3.817C44.784,37.323,45.892,37,47.03,37    c3.292,0,5.97,2.679,5.97,5.971V47z"/><path d="M61.955,30.871c0.898-2.873,1.22-5.873,0.956-8.917C61.94,10.75,52.733,1.763,41.496,1.048    c-3.292-0.209-6.513,0.266-9.571,1.412c-1.18,0.444-2.446,0.642-3.757,0.569C27.781,3.01,27.392,3,27,3    C14.318,3,4,13.317,4,26.027c0.002,1.608-0.286,3.044-0.856,4.267c-1.472,3.158-2.192,6.539-2.141,10.051    c0.171,11.666,9.389,21.58,20.985,22.569c0.676,0.058,1.35,0.087,2.021,0.087c2.35,0,4.661-0.354,6.894-1.056    c1.113-0.351,2.298-0.346,3.425,0.015c2.723,0.871,5.558,1.195,8.425,0.971c10.666-0.838,19.341-9.514,20.18-20.18    c0.225-2.858-0.099-5.683-0.96-8.395C61.605,33.21,61.6,32.005,61.955,30.871z M60.064,34.963    c0.784,2.465,1.077,5.032,0.873,7.632c-0.762,9.695-8.647,17.58-18.342,18.342c-2.606,0.205-5.185-0.09-7.659-0.881    c-1.522-0.486-3.125-0.493-4.634-0.019c-2.62,0.825-5.361,1.122-8.144,0.885C11.572,60.019,3.158,50.967,3.002,40.315    c-0.047-3.207,0.61-6.294,1.954-9.176C5.651,29.649,6.002,27.929,6,26C6,14.421,15.42,5,27,5c0.358,0,0.714,0.01,1.067,0.027    c1.588,0.078,3.124-0.153,4.561-0.694c2.791-1.047,5.733-1.481,8.741-1.289c10.258,0.652,18.663,8.856,19.55,19.082    c0.241,2.783-0.053,5.524-0.873,8.147C59.568,31.801,59.574,33.423,60.064,34.963z"/><rect height="2" width="2" x="31" y="32"/><rect height="2" width="2" x="8" y="25"/><rect height="2" width="2" x="34" y="55"/></g></g></svg>