<svg id="图层_1" data-name="图层 1" xmlns="http://www.w3.org/2000/svg" viewBox="0 0 251.98 209.94"><defs><style>.cls-1{fill:#a4b6cc;}.cls-2{fill:#6d81c9;}.cls-3{fill:#00829f;opacity:0.55;}.cls-4{fill:#bfab9f;}.cls-5{opacity:0.47;}.cls-6{fill:#8c6239;}.cls-7{opacity:0.78;}.cls-8{fill:#ffdac9;}.cls-9{fill:#39b54a;}.cls-10{fill:#ff4242;}.cls-10,.cls-12{opacity:0.54;}.cls-11{fill:#39b5ae;}.cls-12{fill:#ff9542;}</style></defs><title>logo</title><path class="cls-1" d="M118.5,4.34C-3.94,28.12-59.6,200.06,90.76,209.55c78.52,5,151-38.47,110.41-78.37-42.93-42.24-16.69-84.74,24.57-90.59,3.45-.49,10.51-1.15,14-1.76C280.77,31.62,213.27-14.07,118.5,4.34Z"/><circle class="cls-2" cx="161.9" cy="31.08" r="12.5"/><ellipse class="cls-3" cx="78.77" cy="173.83" rx="13.63" ry="15.75"/><path class="cls-4" d="M129,154.48c2.47,10.5,4.15,21,1.23,20-1.24.33-5.07-7.22-7.12-18.46-2.33-9.05-5.55-24.12-5.4-23.89s-2.66-12.3-1.07-13.45S120.75,116.12,129,154.48Z"/><g class="cls-5"><path class="cls-6" d="M93.47,66.19c8.68,2,14.19-1.56,18-9.2,1.63-3.27,3.09-6.73,5.75-9.32,4.2-4.09,10.11-4.84,15.72-4.88,5.15,0,5.16-8,0-8-10.55.07-20,3.35-25.57,12.7-3.18,5.31-4.14,12.71-11.78,11-5-1.14-7.15,6.58-2.13,7.72Z"/></g><g class="cls-7"><path class="cls-8" d="M136.84,194.93c11.82,3.23,23.55-1.6,33-8.6,5.9-4.36,13.61-10.25,17-17,2.3-4.59-4.6-8.64-6.91-4-2.55,5.1-8.63,9.87-13.08,13.35-7.8,6.1-17.77,11.35-27.88,8.58-5-1.36-7.1,6.36-2.13,7.72Z"/></g><g class="cls-7"><path class="cls-9" d="M144.84,74.94c2.58,0,2.58-4,0-4s-2.58,4,0,4Z"/></g><g class="cls-7"><path class="cls-9" d="M142.9,88.15c2.57,0,2.58-4,0-4s-2.58,4,0,4Z"/></g><g class="cls-7"><path class="cls-9" d="M132,90.48c2.57,0,2.58-4,0-4s-2.58,4,0,4Z"/></g><g class="cls-7"><path class="cls-9" d="M139,106.4c2.57,0,2.58-4,0-4s-2.58,4,0,4Z"/></g><g class="cls-7"><path class="cls-9" d="M127,99c2.57,0,2.58-4,0-4s-2.58,4,0,4Z"/></g><g class="cls-7"><path class="cls-9" d="M133.19,110.28c2.58,0,2.58-4,0-4s-2.58,4,0,4Z"/></g><g class="cls-7"><path class="cls-9" d="M145.23,117.27c2.57,0,2.58-4,0-4s-2.58,4,0,4Z"/></g><g class="cls-7"><path class="cls-9" d="M149.43,113.84l.38-1.17a2,2,0,0,0-1.4-2.46,2,2,0,0,0-2.46,1.4l-.37,1.17a2,2,0,0,0,1.39,2.46,2,2,0,0,0,2.46-1.4Z"/></g><g class="cls-7"><path class="cls-9" d="M151.05,122.7c2.58,0,2.58-4,0-4s-2.57,4,0,4Z"/></g><g class="cls-7"><path class="cls-9" d="M170.53,103.23v-1.16a2,2,0,0,0-4,0v1.16a2,2,0,0,0,4,0Z"/></g><g class="cls-7"><path class="cls-9" d="M149.89,83.49c2.57,0,2.58-4,0-4s-2.58,4,0,4Z"/></g><g class="cls-7"><path class="cls-9" d="M154.55,81.16c2.57,0,2.58-4,0-4s-2.58,4,0,4Z"/></g><g class="cls-7"><path class="cls-9" d="M160.37,78.05c2.58,0,2.58-4,0-4s-2.57,4,0,4Z"/></g><g class="cls-7"><path class="cls-9" d="M154.88,76.83v.77a2,2,0,0,0,4,0v-.77a2,2,0,1,0-4,0Z"/></g><g class="cls-7"><path class="cls-9" d="M161.5,111.83a9.44,9.44,0,0,1,3.5,8.72c-.38,2.52,3.48,3.61,3.86,1.07a13.7,13.7,0,0,0-5.34-13.24c-2-1.57-4,1.9-2,3.45Z"/></g><g class="cls-7"><path class="cls-9" d="M152,114.35a7,7,0,0,1,1.14,5.08c-.44,2.52,3.42,3.6,3.86,1.06a11.16,11.16,0,0,0-1.55-8.16c-1.39-2.15-4.86-.15-3.45,2Z"/></g><g class="cls-7"><path class="cls-9" d="M134.66,110.45a27,27,0,0,0,.12,9.62c.49,2.52,4.34,1.45,3.86-1.07a21.18,21.18,0,0,1-.12-7.49c.4-2.52-3.45-3.6-3.86-1.06Z"/></g><g class="cls-7"><path class="cls-9" d="M135.68,86.52c-.53,4.37-.79,9.1,2,12.8,1.53,2,5,0,3.45-2-2.39-3.15-1.92-7.08-1.47-10.78.31-2.55-3.69-2.53-4,0Z"/></g><g class="cls-7"><path class="cls-9" d="M128.93,111.77c1.12.66,1.78.62,2-.13.09-.25.19-.49.29-.73l.51-1.25,1.13-2.76a2,2,0,0,0-1.4-2.46,2,2,0,0,0-2.46,1.4c-.55,1.33-1.1,2.67-1.64,4a5.12,5.12,0,0,0-.48,3.47,3,3,0,0,0,4.88,1.29c1.86-1.79-1-4.62-2.82-2.83Z"/></g><g class="cls-7"><path class="cls-9" d="M136.54,80.86a6.87,6.87,0,0,0,6.51,1.8c2.5-.59,1.44-4.45-1.06-3.86a2.74,2.74,0,0,1-2.62-.76c-1.84-1.81-4.67,1-2.83,2.82Z"/></g><g class="cls-7"><path class="cls-9" d="M165.12,86.15a13.24,13.24,0,0,1-2.25,5.63c-1.43,2.15,2,4.16,3.46,2a17.79,17.79,0,0,0,2.79-7.65,2,2,0,0,0-2-2,2,2,0,0,0-2,2Z"/></g><g class="cls-7"><path class="cls-9" d="M163.34,103.84a3.36,3.36,0,0,1-1.72,4.48c-2.33,1.1-.3,4.55,2,3.45a7.37,7.37,0,0,0,3.15-10c-1.18-2.29-4.64-.27-3.45,2Z"/></g><circle class="cls-10" cx="150.52" cy="97.26" r="7.9"/><g class="cls-7"><path class="cls-11" d="M87.56,86.15c2.57,0,2.58-4,0-4s-2.58,4,0,4Z"/></g><g class="cls-7"><path class="cls-11" d="M70.45,95c2.58,0,2.58-4,0-4s-2.57,4,0,4Z"/></g><g class="cls-7"><path class="cls-11" d="M58.57,84.22c2.57,0,2.58-4,0-4s-2.58,4,0,4Z"/></g><g class="cls-7"><path class="cls-11" d="M45.8,105.81c2.57,0,2.58-4,0-4s-2.58,4,0,4Z"/></g><g class="cls-7"><path class="cls-11" d="M44.31,85.49c2.57,0,2.57-4,0-4s-2.58,4,0,4Z"/></g><g class="cls-7"><path class="cls-11" d="M36.34,102.26c2.58,0,2.58-4,0-4s-2.58,4,0,4Z"/></g><g class="cls-7"><path class="cls-11" d="M38.29,122.25c2.57,0,2.58-4,0-4s-2.58,4,0,4Z"/></g><g class="cls-7"><path class="cls-11" d="M43,123.2l1.69-.55a2,2,0,1,0-1.06-3.85l-1.69.54A2,2,0,0,0,43,123.2Z"/></g><g class="cls-7"><path class="cls-11" d="M36.82,133.66c2.58,0,2.58-4,0-4s-2.57,4,0,4Z"/></g><g class="cls-7"><path class="cls-11" d="M73,139.14l1.36-1a2,2,0,1,0-2-3.45l-1.36,1a2.05,2.05,0,0,0-.72,2.74,2,2,0,0,0,2.74.71Z"/></g><g class="cls-7"><path class="cls-11" d="M81.8,99.26c2.58,0,2.58-4,0-4s-2.58,4,0,4Z"/></g><g class="cls-7"><path class="cls-11" d="M88.46,102.76c2.57,0,2.57-4,0-4s-2.58,4,0,4Z"/></g><g class="cls-7"><path class="cls-11" d="M97,107c2.58,0,2.58-4,0-4s-2.58,4,0,4Z"/></g><g class="cls-7"><path class="cls-11" d="M56.06,89.7l-.91.65a2,2,0,1,0,2,3.46l.91-.66a2,2,0,1,0-2-3.45Z"/></g><g class="cls-7"><path class="cls-11" d="M56.89,136.15a14.65,14.65,0,0,1-8.15,12.7c-2.29,1.17-.27,4.62,2,3.46a18.69,18.69,0,0,0,10.13-16.16c.08-2.58-3.92-2.57-4,0Z"/></g><g class="cls-7"><path class="cls-11" d="M45.8,128.09A11,11,0,0,1,40.09,134c-2.32,1.1-.29,4.55,2,3.46a15,15,0,0,0,7.55-8.35c.92-2.41-2.95-3.45-3.86-1.06Z"/></g><g class="cls-7"><path class="cls-11" d="M35,104.78a35.89,35.89,0,0,0-10.33,7.67c-1.76,1.87,1.06,4.71,2.83,2.82a33,33,0,0,1,9.52-7c2.3-1.14.28-4.59-2-3.46Z"/></g><g class="cls-7"><path class="cls-11" d="M71.83,134.53c-5.59,3.06-11.38,6.7-13.27,13.17-.72,2.48,3.14,3.53,3.86,1.07C64,143.4,69.26,140.5,73.85,138c2.26-1.23.24-4.69-2-3.45Z"/></g><g class="cls-7"><path class="cls-11" d="M28.72,99.12c0,.86.23,1.09.71.69.31-.1.62-.19.93-.26.68-.18,1.37-.33,2-.49l4.78-1.14c2.51-.6,1.45-4.46-1.06-3.86l-5.46,1.31A9.42,9.42,0,0,0,26.46,97c-2,1.7-1.69,5.46,1.2,6,2.52.47,3.6-3.39,1.06-3.85Z"/></g><g class="cls-7"><path class="cls-11" d="M72.2,81a9,9,0,0,0,2.86,8.38c1.94,1.68,4.78-1.14,2.83-2.83a4.94,4.94,0,0,1-1.83-4.48,2.06,2.06,0,0,0-1.4-2.46A2,2,0,0,0,72.2,81Z"/></g><g class="cls-7"><path class="cls-11" d="M89.83,119.65A20,20,0,0,1,80.94,122c-2.57.1-2.58,4.1,0,4a24.6,24.6,0,0,0,10.91-2.92c2.27-1.22.25-4.67-2-3.45Z"/></g><g class="cls-7"><path class="cls-11" d="M80.83,132a5.7,5.7,0,0,1-7.77,2.51c-2.25-1.24-4.27,2.21-2,3.46A9.75,9.75,0,0,0,84.29,134c1.16-2.29-2.29-4.31-3.46-2Z"/></g><circle class="cls-12" cx="62.4" cy="117.06" r="11.39"/></svg>